<?xml version="1.0" encoding="UTF-8" standalone="no"?>
<!-- Created with Inkscape (http://www.inkscape.org/) -->

<svg
   version="1.1"
   id="svg136299"
   width="800"
   height="800"
   viewBox="0 0 800 800"
   sodipodi:docname="sun-fire-publicdomainvectors.org.svg"
   inkscape:version="1.2 (dc2aedaf03, 2022-05-15)"
   xmlns:inkscape="http://www.inkscape.org/namespaces/inkscape"
   xmlns:sodipodi="http://sodipodi.sourceforge.net/DTD/sodipodi-0.dtd"
   xmlns="http://www.w3.org/2000/svg"
   xmlns:svg="http://www.w3.org/2000/svg">
  <defs
     id="defs136303">
    <clipPath
       clipPathUnits="userSpaceOnUse"
       id="clipPath136315">
      <path
         d="M 0,600 H 600 V 0 H 0 Z"
         id="path136313" />
    </clipPath>
    <radialGradient
       fx="0"
       fy="0"
       cx="0"
       cy="0"
       r="1"
       gradientUnits="userSpaceOnUse"
       gradientTransform="matrix(211.53438,-80.117065,-80.117065,-211.53438,295.92416,340.84677)"
       spreadMethod="pad"
       id="radialGradient136505">
      <stop
         style="stop-opacity:1;stop-color:#fff200"
         offset="0"
         id="stop136497" />
      <stop
         style="stop-opacity:1;stop-color:#fff200"
         offset="0.19"
         id="stop136499" />
      <stop
         style="stop-opacity:1;stop-color:#fff200"
         offset="0.23583464"
         id="stop136501" />
      <stop
         style="stop-opacity:1;stop-color:#f57b25"
         offset="1"
         id="stop136503" />
    </radialGradient>
  </defs>
  <sodipodi:namedview
     id="namedview136301"
     pagecolor="#ffffff"
     bordercolor="#000000"
     borderopacity="0.25"
     inkscape:showpageshadow="2"
     inkscape:pageopacity="0.0"
     inkscape:pagecheckerboard="0"
     inkscape:deskcolor="#d1d1d1"
     showgrid="false"
     inkscape:zoom="1.04625"
     inkscape:cx="400"
     inkscape:cy="400.4779"
     inkscape:window-width="1920"
     inkscape:window-height="1017"
     inkscape:window-x="-8"
     inkscape:window-y="-8"
     inkscape:window-maximized="1"
     inkscape:current-layer="g136307">
    <inkscape:page
       x="0"
       y="0"
       id="page136305"
       width="800"
       height="800" />
  </sodipodi:namedview>
  <g
     id="g136307"
     inkscape:groupmode="layer"
     inkscape:label="Page 1"
     transform="matrix(1.3333333,0,0,-1.3333333,0,800)">
    <g
       id="g136309">
      <g
         id="g136311"
         clip-path="url(#clipPath136315)">
        <g
           id="g136317"
           transform="translate(302.5264,99.7305)">
          <path
             d="M 0,0 C 82.996,0 150.689,4.902 150.689,10.907 150.689,16.91 82.996,21.812 0,21.812 -82.988,21.812 -150.672,16.91 -150.672,10.907 -150.672,4.902 -82.988,0 0,0"
             style="fill:#ffffff;fill-opacity:1;fill-rule:evenodd;stroke:none"
             id="path136319" />
        </g>
        <g
           id="g136321"
           transform="translate(302.5264,121.3633)">
          <path
             d="m 0,0 c 81.489,0 147.564,-4.784 147.564,-10.677 0,-5.905 -66.075,-10.676 -147.564,-10.676 -81.47,0 -147.545,4.771 -147.545,10.676 C -147.545,-4.784 -81.47,0 0,0"
             style="fill:#fdfdfd;fill-opacity:1;fill-rule:evenodd;stroke:none"
             id="path136323" />
        </g>
        <g
           id="g136325"
           transform="translate(302.5264,121.1768)">
          <path
             d="m 0,0 c 79.761,0 144.442,-4.671 144.442,-10.437 0,-5.781 -64.681,-10.461 -144.442,-10.461 -79.741,0 -144.417,4.68 -144.417,10.461 C -144.417,-4.671 -79.741,0 0,0"
             style="fill:#fbfbfb;fill-opacity:1;fill-rule:evenodd;stroke:none"
             id="path136327" />
        </g>
        <g
           id="g136329"
           transform="translate(302.5264,121.0107)">
          <path
             d="m 0,0 c 78.043,0 141.307,-4.576 141.307,-10.227 0,-5.649 -63.264,-10.232 -141.307,-10.232 -78.013,0 -141.294,4.583 -141.294,10.232 C -141.294,-4.576 -78.013,0 0,0"
             style="fill:#fbfbfb;fill-opacity:1;fill-rule:evenodd;stroke:none"
             id="path136331" />
        </g>
        <g
           id="g136333"
           transform="translate(302.5264,120.8281)">
          <path
             d="m 0,0 c 76.308,0 138.191,-4.479 138.191,-9.995 0,-5.517 -61.878,-9.997 -138.191,-9.997 -76.286,0 -138.163,4.48 -138.163,9.997 C -138.163,-4.479 -76.288,0 0,0"
             style="fill:#f8f8f8;fill-opacity:1;fill-rule:evenodd;stroke:none"
             id="path136335" />
        </g>
        <g
           id="g136337"
           transform="translate(302.5264,120.6533)">
          <path
             d="m 0,0 c 74.581,0 135.054,-4.379 135.054,-9.775 0,-5.396 -60.473,-9.779 -135.054,-9.779 -74.555,0 -135.034,4.383 -135.034,9.779 C -135.036,-4.379 -74.56,0 0,0"
             style="fill:#f6f6f6;fill-opacity:1;fill-rule:evenodd;stroke:none"
             id="path136339" />
        </g>
        <g
           id="g136341"
           transform="translate(302.5264,120.4756)">
          <path
             d="m 0,0 c 72.854,0 131.927,-4.268 131.927,-9.549 0,-5.265 -59.073,-9.538 -131.927,-9.538 -72.829,0 -131.907,4.273 -131.907,9.538 C -131.909,-4.268 -72.831,0 0,0"
             style="fill:#f4f4f4;fill-opacity:1;fill-rule:evenodd;stroke:none"
             id="path136343" />
        </g>
        <g
           id="g136345"
           transform="translate(302.5264,120.2959)">
          <path
             d="m 0,0 c 71.131,0 128.804,-4.172 128.804,-9.314 0,-5.153 -57.673,-9.316 -128.804,-9.316 -71.113,0 -128.778,4.163 -128.778,9.316 C -128.78,-4.172 -71.113,0 0,0"
             style="fill:#f4f4f4;fill-opacity:1;fill-rule:evenodd;stroke:none"
             id="path136347" />
        </g>
        <g
           id="g136349"
           transform="translate(302.5264,120.1201)">
          <path
             d="m 0,0 c 69.399,0 125.673,-4.065 125.673,-9.094 0,-5.026 -56.274,-9.093 -125.673,-9.093 -69.38,0 -125.653,4.067 -125.653,9.093 C -125.653,-4.065 -69.38,0 0,0"
             style="fill:#f2f2f2;fill-opacity:1;fill-rule:evenodd;stroke:none"
             id="path136351" />
        </g>
        <g
           id="g136353"
           transform="translate(302.5264,119.9424)">
          <path
             d="m 0,0 c 67.671,0 122.544,-3.968 122.544,-8.867 0,-4.896 -54.873,-8.868 -122.544,-8.868 -67.651,0 -122.52,3.972 -122.52,8.868 C -122.523,-3.968 -67.653,0 0,0"
             style="fill:#f0efef;fill-opacity:1;fill-rule:evenodd;stroke:none"
             id="path136355" />
        </g>
        <g
           id="g136357"
           transform="translate(302.5264,119.7764)">
          <path
             d="m 0,0 c 65.942,0 119.419,-3.877 119.419,-8.657 0,-4.771 -53.477,-8.644 -119.419,-8.644 -65.92,0 -119.393,3.873 -119.393,8.644 C -119.396,-3.877 -65.925,0 0,0"
             style="fill:#f0efef;fill-opacity:1;fill-rule:evenodd;stroke:none"
             id="path136359" />
        </g>
        <g
           id="g136361"
           transform="translate(302.5264,119.5791)">
          <path
             d="m 0,0 c 64.216,0 116.283,-3.757 116.283,-8.402 0,-4.649 -52.067,-8.419 -116.283,-8.419 -64.203,0 -116.273,3.77 -116.273,8.419 C -116.275,-3.757 -64.205,0 0,0"
             style="fill:#ededed;fill-opacity:1;fill-rule:evenodd;stroke:none"
             id="path136363" />
        </g>
        <g
           id="g136365"
           transform="translate(302.5264,119.4082)">
          <path
             d="m 0,0 c 62.491,0 113.175,-3.668 113.175,-8.189 0,-4.52 -50.684,-8.184 -113.175,-8.184 -62.474,0 -113.14,3.664 -113.14,8.184 C -113.14,-3.668 -62.476,0 0,0"
             style="fill:#ebebeb;fill-opacity:1;fill-rule:evenodd;stroke:none"
             id="path136367" />
        </g>
        <g
           id="g136369"
           transform="translate(302.5264,119.2236)">
          <path
             d="m 0,0 c 60.758,0 110.034,-3.555 110.034,-7.955 0,-4.395 -49.276,-7.958 -110.034,-7.958 -60.748,0 -110.017,3.563 -110.017,7.958 C -110.017,-3.555 -60.748,0 0,0"
             style="fill:#e9e9e9;fill-opacity:1;fill-rule:evenodd;stroke:none"
             id="path136371" />
        </g>
        <g
           id="g136373"
           transform="translate(302.5264,119.0508)">
          <path
             d="m 0,0 c 59.031,0 106.905,-3.467 106.905,-7.738 0,-4.261 -47.869,-7.728 -106.905,-7.728 -59.014,0 -106.891,3.467 -106.891,7.728 C -106.891,-3.467 -59.017,0 0,0"
             style="fill:#e7e6e6;fill-opacity:1;fill-rule:evenodd;stroke:none"
             id="path136375" />
        </g>
        <g
           id="g136377"
           transform="translate(302.5264,118.875)">
          <path
             d="m 0,0 c 57.309,0 103.774,-3.364 103.774,-7.503 0,-4.156 -46.465,-7.514 -103.774,-7.514 -57.29,-0.002 -103.757,3.358 -103.757,7.514 C -103.757,-3.364 -57.29,0 0,0"
             style="fill:#e7e6e6;fill-opacity:1;fill-rule:evenodd;stroke:none"
             id="path136379" />
        </g>
        <g
           id="g136381"
           transform="translate(302.5264,118.7002)">
          <path
             d="m 0,0 c 55.581,0 100.652,-3.267 100.652,-7.283 0,-4.028 -45.071,-7.283 -100.652,-7.283 -55.564,0 -100.628,3.255 -100.628,7.283 C -100.628,-3.267 -55.564,0 0,0"
             style="fill:#e5e4e4;fill-opacity:1;fill-rule:evenodd;stroke:none"
             id="path136383" />
        </g>
        <g
           id="g136385"
           transform="translate(302.5264,118.5244)">
          <path
             d="m 0,0 c 53.854,0 97.52,-3.164 97.52,-7.063 0,-3.893 -43.664,-7.057 -97.52,-7.057 -53.835,0 -97.504,3.164 -97.504,7.057 C -97.504,-3.164 -53.835,0 0,0"
             style="fill:#e2e2e2;fill-opacity:1;fill-rule:evenodd;stroke:none"
             id="path136387" />
        </g>
        <g
           id="g136389"
           transform="translate(302.5264,118.3496)">
          <path
             d="m 0,0 c 52.132,0 94.392,-3.064 94.392,-6.84 0,-3.765 -42.26,-6.823 -94.392,-6.823 -52.106,0 -94.368,3.058 -94.368,6.823 C -94.37,-3.064 -52.106,0 0,0"
             style="fill:#e2e2e2;fill-opacity:1;fill-rule:evenodd;stroke:none"
             id="path136391" />
        </g>
        <g
           id="g136393"
           transform="translate(302.5264,118.168)">
          <path
             d="m 0,0 c 50.405,0 91.265,-2.959 91.265,-6.609 0,-3.651 -40.86,-6.604 -91.265,-6.604 -50.378,0 -91.248,2.953 -91.248,6.604 C -91.248,-2.959 -50.378,0 0,0"
             style="fill:#e0e0e0;fill-opacity:1;fill-rule:evenodd;stroke:none"
             id="path136395" />
        </g>
        <g
           id="g136397"
           transform="translate(302.5264,117.9814)">
          <path
             d="m 0,0 c 48.673,0 88.145,-2.843 88.145,-6.374 0,-3.523 -39.468,-6.373 -88.145,-6.373 -48.648,0 -88.114,2.85 -88.116,6.373 C -88.116,-2.843 -48.648,0 0,0"
             style="fill:#deddde;fill-opacity:1;fill-rule:evenodd;stroke:none"
             id="path136399" />
        </g>
        <g
           id="g136401"
           transform="translate(302.5264,117.8076)">
          <path
             d="m 0,0 c 46.941,0 85.007,-2.751 85.007,-6.153 0,-3.394 -38.066,-6.145 -85.007,-6.145 -46.92,0 -84.99,2.751 -84.99,6.145 C -84.99,-2.751 -46.922,0 0,0"
             style="fill:#dcdbdb;fill-opacity:1;fill-rule:evenodd;stroke:none"
             id="path136403" />
        </g>
        <g
           id="g136405"
           transform="translate(302.5264,117.6348)">
          <path
             d="m 0,0 c 45.215,0 81.882,-2.66 81.882,-5.937 0,-3.268 -36.667,-5.917 -81.882,-5.917 -45.198,0 -81.861,2.649 -81.863,5.917 C -81.865,-2.66 -45.2,0 0,0"
             style="fill:#dcdbdb;fill-opacity:1;fill-rule:evenodd;stroke:none"
             id="path136407" />
        </g>
        <g
           id="g136409"
           transform="translate(302.5264,117.4512)">
          <path
             d="m 0,0 c 43.486,0 78.756,-2.55 78.756,-5.699 0,-3.14 -35.27,-5.697 -78.756,-5.697 -43.471,0 -78.732,2.557 -78.732,5.697 C -78.734,-2.55 -43.471,0 0,0"
             style="fill:#dad9d9;fill-opacity:1;fill-rule:evenodd;stroke:none"
             id="path136411" />
        </g>
        <g
           id="g136413"
           transform="translate(302.5264,117.2705)">
          <path
             d="m 0,0 c 41.765,0 75.62,-2.439 75.62,-5.459 0,-3.033 -33.855,-5.483 -75.62,-5.483 -41.743,0 -75.607,2.45 -75.607,5.483 C -75.607,-2.439 -41.743,0 0,0"
             style="fill:#d7d7d7;fill-opacity:1;fill-rule:evenodd;stroke:none"
             id="path136415" />
        </g>
        <g
           id="g136417"
           transform="translate(302.5264,117.0938)">
          <path
             d="m 0,0 c 40.038,0 72.495,-2.349 72.495,-5.235 0,-2.908 -32.457,-5.253 -72.495,-5.253 -40.016,0 -72.48,2.345 -72.48,5.253 C -72.48,-2.349 -40.016,0 0,0"
             style="fill:#d7d7d7;fill-opacity:1;fill-rule:evenodd;stroke:none"
             id="path136419" />
        </g>
        <g
           id="g136421"
           transform="translate(302.5264,116.916)">
          <path
             d="m 0,0 c 38.307,0 69.371,-2.241 69.371,-5.02 0,-2.767 -31.064,-5.015 -69.371,-5.015 -38.294,0 -69.345,2.248 -69.345,5.015 C -69.345,-2.241 -38.294,0 0,0"
             style="fill:#d5d4d5;fill-opacity:1;fill-rule:evenodd;stroke:none"
             id="path136423" />
        </g>
        <g
           id="g136425"
           transform="translate(302.5264,116.7402)">
          <path
             d="m 0,0 c 36.576,0 66.235,-2.144 66.235,-4.791 0,-2.647 -29.659,-4.8 -66.235,-4.8 -36.565,0 -66.227,2.153 -66.229,4.8 C -66.229,-2.144 -36.565,0 0,0"
             style="fill:#d3d2d2;fill-opacity:1;fill-rule:evenodd;stroke:none"
             id="path136427" />
        </g>
        <g
           id="g136429"
           transform="translate(302.5264,116.5693)">
          <path
             d="m 0,0 c 34.845,0 63.115,-2.043 63.115,-4.573 0,-2.517 -28.27,-4.568 -63.115,-4.568 -34.837,0 -63.091,2.051 -63.091,4.568 C -63.091,-2.043 -34.837,0 0,0"
             style="fill:#d1d0d0;fill-opacity:1;fill-rule:evenodd;stroke:none"
             id="path136431" />
        </g>
        <g
           id="g136433"
           transform="translate(302.5264,116.3857)">
          <path
             d="m 0,0 c 33.132,0 59.988,-1.944 59.988,-4.346 0,-2.387 -26.856,-4.327 -59.988,-4.327 -33.11,0 -59.969,1.94 -59.969,4.327 C -59.969,-1.944 -33.11,0 0,0"
             style="fill:#cfcece;fill-opacity:1;fill-rule:evenodd;stroke:none"
             id="path136435" />
        </g>
        <g
           id="g136437"
           transform="translate(302.5264,116.208)">
          <path
             d="M 0,0 C 31.4,0 56.861,-1.842 56.861,-4.107 56.861,-6.396 31.4,-8.23 0,-8.23 c -31.381,0 -56.842,1.834 -56.844,4.123 C -56.844,-1.842 -31.381,0 0,0"
             style="fill:#cfcece;fill-opacity:1;fill-rule:evenodd;stroke:none"
             id="path136439" />
        </g>
        <g
           id="g136441"
           transform="translate(302.5264,116.0283)">
          <path
             d="M 0,0 C 29.67,0.004 53.732,-1.729 53.732,-3.882 53.732,-6.036 29.67,-7.768 0,-7.768 c -29.653,0 -53.709,1.732 -53.709,3.886 C -53.709,-1.729 -29.655,0 0,0"
             style="fill:#cccbcc;fill-opacity:1;fill-rule:evenodd;stroke:none"
             id="path136443" />
        </g>
        <g
           id="g136445"
           transform="translate(302.5264,115.8555)">
          <path
             d="m 0,0 c 27.952,0 50.603,-1.643 50.603,-3.655 0,-2.029 -22.651,-3.671 -50.603,-3.671 -27.922,0 -50.582,1.642 -50.582,3.671 C -50.582,-1.643 -27.924,0 0,0"
             style="fill:#cac9c9;fill-opacity:1;fill-rule:evenodd;stroke:none"
             id="path136447" />
        </g>
        <g
           id="g136449"
           transform="translate(302.5264,115.6729)">
          <path
             d="m 0,0 c 26.222,0 47.472,-1.533 47.472,-3.429 0,-1.892 -21.248,-3.434 -47.472,-3.434 -26.2,0 -47.459,1.542 -47.459,3.434 C -47.459,-1.533 -26.2,0 0,0"
             style="fill:#cac9c9;fill-opacity:1;fill-rule:evenodd;stroke:none"
             id="path136451" />
        </g>
        <g
           id="g136453"
           transform="translate(302.5264,115.498)">
          <path
             d="M 0,0 C 24.497,0 44.35,-1.434 44.35,-3.207 44.35,-4.984 24.497,-6.42 0,-6.42 c -24.469,0 -44.319,1.436 -44.319,3.213 C -44.319,-1.434 -24.469,0 0,0"
             style="fill:#c8c7c7;fill-opacity:1;fill-rule:evenodd;stroke:none"
             id="path136455" />
        </g>
        <g
           id="g136457"
           transform="translate(302.5264,115.3252)">
          <path
             d="M 0,0 C 22.768,0 41.219,-1.346 41.219,-2.989 41.221,-4.634 22.771,-5.961 0,-5.961 c -22.745,0 -41.206,1.327 -41.206,2.972 C -41.206,-1.346 -22.745,0 0,0"
             style="fill:#c6c5c5;fill-opacity:1;fill-rule:evenodd;stroke:none"
             id="path136459" />
        </g>
        <g
           id="g136461"
           transform="translate(302.5264,115.1426)">
          <path
             d="m 0,0 c 21.042,0 38.094,-1.231 38.094,-2.752 0,-1.518 -17.052,-2.76 -38.094,-2.76 -21.024,0 -38.07,1.242 -38.07,2.76 C -38.07,-1.231 -21.024,0 0,0"
             style="fill:#c4c3c3;fill-opacity:1;fill-rule:evenodd;stroke:none"
             id="path136463" />
        </g>
        <g
           id="g136465"
           transform="translate(302.5264,114.9609)">
          <path
             d="m 0,0 c 19.315,0 34.965,-1.134 34.965,-2.53 0,-1.394 -15.65,-2.528 -34.965,-2.528 -19.294,0 -34.945,1.134 -34.945,2.528 C -34.945,-1.134 -19.296,0 0,0"
             style="fill:#c4c3c3;fill-opacity:1;fill-rule:evenodd;stroke:none"
             id="path136467" />
        </g>
        <g
           id="g136469"
           transform="translate(302.5264,114.79)">
          <path
             d="M 0,0 C 17.582,0 31.836,-1.034 31.836,-2.311 31.836,-3.57 17.582,-4.605 0,-4.605 c -17.567,0 -31.821,1.035 -31.821,2.294 C -31.821,-1.034 -17.567,0 0,0"
             style="fill:#c1c0c1;fill-opacity:1;fill-rule:evenodd;stroke:none"
             id="path136471" />
        </g>
        <g
           id="g136473"
           transform="translate(302.5264,114.6016)">
          <path
             d="m 0,0 c 15.853,0 28.709,-0.93 28.709,-2.066 0,-1.157 -12.856,-2.09 -28.709,-2.09 -15.836,0 -28.683,0.933 -28.683,2.09 C -28.683,-0.93 -15.836,0 0,0"
             style="fill:#bfbebe;fill-opacity:1;fill-rule:evenodd;stroke:none"
             id="path136475" />
        </g>
        <g
           id="g136477"
           transform="translate(302.5264,114.4326)">
          <path
             d="m 0,0 c 14.125,0 25.58,-0.825 25.58,-1.849 0,-1.025 -11.455,-1.843 -25.58,-1.843 -14.105,0 -25.558,0.818 -25.558,1.843 C -25.558,-0.825 -14.105,0 0,0"
             style="fill:#bdbcbc;fill-opacity:1;fill-rule:evenodd;stroke:none"
             id="path136479" />
        </g>
        <g
           id="g136481"
           transform="translate(302.5264,111)">
          <path
             d="m 0,0 c 12.374,0 22.451,0.736 22.451,1.633 0,0.892 -10.077,1.62 -22.451,1.62 -12.354,0 -22.434,-0.728 -22.434,-1.62 C -22.434,0.736 -12.354,0 0,0"
             style="fill:#bdbcbc;fill-opacity:1;fill-rule:evenodd;stroke:none"
             id="path136483" />
        </g>
      </g>
    </g>
    <g
       id="g136485">
      <g
         id="g136487">
        <g
           id="g136493">
          <g
             id="g136495">
            <path
               d="M 265.538,491.63 C 213.491,469.259 206.846,407.939 201.187,383.78 v 0 c 0,0 21.447,-3.683 41.76,11.041 v 0 c -3.897,27.244 6.006,49.679 47.813,76.763 v 0 c 38.239,24.765 69.632,60.206 60.974,98.905 v 0 c -10.235,-54.821 -50.172,-63.38 -86.196,-78.859 m -24.344,-3.521 45.177,19.083 c 0,0 12.554,12.001 10.155,47.066 v 0 c -11.712,-47.722 -41.005,-37.213 -55.332,-66.149 m -50.89,-19.811 c -9.455,-25.483 5.233,-72.474 5.233,-72.474 v 0 c 2.309,54.57 50.649,96.84 43.992,134.309 v 0 c -7.438,-33.896 -46.75,-55.156 -49.225,-61.835 m -40.108,-78.437 c -6.675,-56.273 43.082,-92.669 61.164,-109.644 v 0 c 0,0 13.918,16.743 11.335,41.699 v 0 c -25.532,10.235 -39.997,30.026 -42.526,79.781 v 0 c -2.306,45.505 -17.278,90.412 -55.109,102.247 v 0 c 42.334,-36.259 29.762,-75.138 25.136,-114.083 m 203.282,106.266 c -26.784,-4.56 -60.124,-40.796 -60.124,-40.796 v 0 c 48.393,25.303 109.137,4.569 138.245,29.086 v 0 c -19.159,-6.096 -39.995,-0.79 -55.494,4.515 v 0 c -10.573,3.62 -18.664,7.239 -22.043,7.239 v 0 c -0.214,0 -0.409,-0.014 -0.584,-0.044 m 42.575,-34.18 39.093,-29.593 c 0,0 16.663,-4.874 45.816,14.75 v 0 c -27.15,-7.905 -40.506,-1.105 -53.097,5.694 v 0 c -8.562,4.624 -16.772,9.249 -28.724,9.249 v 0 c -1.003,0 -2.03,-0.033 -3.088,-0.1 M 285.752,444.409 c 0,0 7.529,-20.424 30.425,-30.656 v 0 c 21.634,17.008 46.005,19.651 90.339,-3.02 v 0 c 40.544,-20.738 86.909,-30.205 116.083,-3.341 v 0 c -52.569,-18.561 -79.934,11.759 -111.332,35.224 v 0 c -17.434,13.026 -36.496,17.367 -54.707,17.368 v 0 c -29.187,0 -56.189,-11.151 -70.808,-15.575 m -144.688,-77.401 6.084,48.678 c 0,0 -4.106,16.874 -35.66,32.316 v 0 c 35.45,-33.992 11.697,-54.122 29.576,-80.994 m 116.497,39.068 c 0.305,0.058 0.598,0.092 0.895,0.139 v 0 c -0.774,-1.049 -1.444,-2.217 -1.973,-3.526 v 0 c -13.05,-32.34 -51.24,-29.794 -51.24,-29.794 v 0 l 15.022,-32.693 c 0.102,0.293 0.218,0.563 0.328,0.844 v 0 c 0.52,-1.194 1.194,-2.359 2.064,-3.472 v 0 c 21.465,-27.464 0.153,-59.281 0.153,-59.281 v 0 l 35.818,-3.321 c -0.203,0.236 -0.379,0.471 -0.567,0.707 v 0 c 1.295,-0.147 2.639,-0.142 4.038,0.054 v 0 c 34.514,4.874 51.393,-29.488 51.393,-29.488 v 0 l 20.796,29.373 c -0.305,-0.06 -0.598,-0.095 -0.895,-0.139 v 0 c 0.774,1.05 1.444,2.216 1.972,3.527 v 0 c 13.052,32.338 51.242,29.792 51.242,29.792 v 0 l -15.023,32.694 c -0.103,-0.293 -0.218,-0.564 -0.327,-0.845 v 0 c -0.521,1.195 -1.196,2.36 -2.065,3.473 v 0 c -21.465,27.465 -0.155,59.281 -0.155,59.281 v 0 l -35.817,3.32 c 0.204,-0.235 0.38,-0.471 0.568,-0.706 v 0 c -1.295,0.147 -2.64,0.144 -4.038,-0.054 v 0 c -34.515,-4.873 -51.392,29.488 -51.392,29.488 v 0 z m -3.914,-116.564 c 0.222,9.94 4.814,20.67 -2.064,33.399 v 0 c -4.536,8.393 -16.493,17.531 -21.221,28.88 v 0 c 8.716,4.781 20.299,6.171 27.88,18.499 v 0 c 4.999,8.13 6.935,23.061 14.398,32.837 v 0 c 8.493,-5.161 15.484,-14.499 29.944,-14.901 v 0 c 4.302,-0.119 9.49,0.995 15.009,2.109 v 0 c 6.715,1.355 13.918,2.71 20.609,1.846 v 0 c -0.222,-9.94 -4.814,-20.67 2.064,-33.398 v 0 c 4.537,-8.393 16.494,-17.531 21.222,-28.882 v 0 c -8.719,-4.78 -20.3,-6.17 -27.882,-18.497 v 0 c -4.999,-8.132 -6.934,-23.06 -14.397,-32.837 v 0 c -8.494,5.161 -15.484,14.499 -29.944,14.9 v 0 c -4.303,0.118 -9.491,-0.996 -15.011,-2.109 v 0 c -5.246,-1.059 -10.791,-2.118 -16.156,-2.118 v 0 c -1.501,0 -2.988,0.083 -4.451,0.272 m 115.506,70.267 c 25.532,-10.236 40,-30.028 42.527,-79.782 v 0 c 2.306,-45.506 17.278,-90.412 55.108,-102.247 v 0 c -42.333,36.259 -29.761,75.138 -25.136,114.084 v 0 c 6.676,56.272 -43.08,92.668 -61.163,109.643 v 0 c 0,0 -13.918,-16.742 -11.336,-41.698 m 118.844,-64.648 c -25.622,23.379 -24.357,68.063 -28.898,73.544 v 0 c -17.33,20.926 -65.358,31.68 -65.358,31.68 v 0 c 46.085,-29.268 58.487,-92.271 94.256,-105.224 M 132.75,313.018 c 17.331,-20.922 65.358,-31.678 65.358,-31.678 v 0 c -46.085,29.268 -58.489,92.271 -94.255,105.224 v 0 c 25.621,-23.38 24.355,-68.064 28.897,-73.546 m 311.95,-47.01 c 0,0 4.107,-16.874 35.661,-32.316 v 0 c -35.45,33.991 -11.696,54.123 -29.577,80.994 v 0 z m -95.798,20.865 c 3.899,-27.244 -6.006,-49.678 -47.814,-76.763 v 0 c -38.239,-24.765 -69.631,-60.206 -60.973,-98.906 v 0 c 10.234,54.822 50.174,63.382 86.195,78.861 v 0 c 52.048,22.37 58.692,83.691 64.353,107.85 v 0 c 0,0 -2.384,0.409 -6.315,0.41 v 0 c -7.86,0 -21.905,-1.636 -35.446,-11.452 M 69.25,274.303 c 52.57,18.561 79.934,-11.76 111.333,-35.226 v 0 c 45.372,-33.9 101.773,-8.977 125.515,-1.792 v 0 c 0,0 -7.529,20.425 -30.424,30.657 v 0 c -21.636,-17.008 -46.006,-19.652 -90.341,3.017 v 0 c -22.908,11.718 -47.679,19.838 -70.152,19.839 v 0 C 97.878,290.799 81.94,285.988 69.25,274.303 M 352.321,151.562 c 7.436,33.895 46.748,55.154 49.224,61.834 v 0 c 9.455,25.484 -5.233,72.475 -5.233,72.475 v 0 c -2.309,-54.57 -50.649,-96.84 -43.991,-134.309 m -241.435,83.027 c 27.151,7.904 40.507,1.105 53.098,-5.695 v 0 c 9.28,-5.012 18.144,-10.024 31.811,-9.147 v 0 l -39.092,29.593 c 0,0 -1.836,0.537 -5.353,0.537 v 0 c -7.082,10e-4 -20.983,-2.175 -40.464,-15.288 m 49.363,-37.313 c 19.16,6.095 39.996,0.79 55.495,-4.515 v 0 c 11.243,-3.848 19.677,-7.697 22.627,-7.194 v 0 c 26.785,4.56 60.124,40.797 60.124,40.797 v 0 C 250.102,201.06 189.358,221.795 160.249,197.276 m 145.23,-22.775 c 0,0 -12.556,-11.999 -10.157,-47.065 v 0 c 11.713,47.723 41.006,37.214 55.333,66.149 v 0 z"
               style="fill:url(#radialGradient136505);stroke:none"
               id="path136507" />
          </g>
        </g>
      </g>
    </g>
  </g>
</svg>
